<svg width="28" height="28" viewBox="0 0 28 28" fill="none" xmlns="http://www.w3.org/2000/svg">
<path d="M20.9998 2.33337H6.99984C5.71117 2.33337 4.6665 3.37804 4.6665 4.66671V23.3334C4.6665 24.622 5.71117 25.6667 6.99984 25.6667H20.9998C22.2885 25.6667 23.3332 24.622 23.3332 23.3334V4.66671C23.3332 3.37804 22.2885 2.33337 20.9998 2.33337Z" stroke="#01587C" stroke-width="2" stroke-linecap="round" stroke-linejoin="round"/>
<path d="M10.5 25.6667V21H17.5V25.6667" stroke="#01587C" stroke-width="2" stroke-linecap="round" stroke-linejoin="round"/>
<path d="M9.3335 7H9.34516" stroke="#01587C" stroke-width="2" stroke-linecap="round" stroke-linejoin="round"/>
<path d="M18.6665 7H18.6782" stroke="#01587C" stroke-width="2" stroke-linecap="round" stroke-linejoin="round"/>
<path d="M14 7H14.0117" stroke="#01587C" stroke-width="2" stroke-linecap="round" stroke-linejoin="round"/>
<path d="M14 11.6666H14.0117" stroke="#01587C" stroke-width="2" stroke-linecap="round" stroke-linejoin="round"/>
<path d="M14 16.3334H14.0117" stroke="#01587C" stroke-width="2" stroke-linecap="round" stroke-linejoin="round"/>
<path d="M18.6665 11.6666H18.6782" stroke="#01587C" stroke-width="2" stroke-linecap="round" stroke-linejoin="round"/>
<path d="M18.6665 16.3334H18.6782" stroke="#01587C" stroke-width="2" stroke-linecap="round" stroke-linejoin="round"/>
<path d="M9.3335 11.6666H9.34516" stroke="#01587C" stroke-width="2" stroke-linecap="round" stroke-linejoin="round"/>
<path d="M9.3335 16.3334H9.34516" stroke="#01587C" stroke-width="2" stroke-linecap="round" stroke-linejoin="round"/>
</svg>
