<svg width="28" height="28" viewBox="0 0 28 28" fill="none" xmlns="http://www.w3.org/2000/svg">
<path d="M21 23.3334C21 21.4769 20.2625 19.6964 18.9497 18.3836C17.637 17.0709 15.8565 16.3334 14 16.3334C12.1435 16.3334 10.363 17.0709 9.05025 18.3836C7.7375 19.6964 7 21.4769 7 23.3334" stroke="#E9A011" stroke-width="2" stroke-linecap="round" stroke-linejoin="round"/>
<path d="M14.0002 16.3333C16.5775 16.3333 18.6668 14.244 18.6668 11.6667C18.6668 9.08934 16.5775 7 14.0002 7C11.4228 7 9.3335 9.08934 9.3335 11.6667C9.3335 14.244 11.4228 16.3333 14.0002 16.3333Z" stroke="#E9A011" stroke-width="2" stroke-linecap="round" stroke-linejoin="round"/>
<path d="M14.0002 25.6667C20.4435 25.6667 25.6668 20.4434 25.6668 14C25.6668 7.55672 20.4435 2.33337 14.0002 2.33337C7.55684 2.33337 2.3335 7.55672 2.3335 14C2.3335 20.4434 7.55684 25.6667 14.0002 25.6667Z" stroke="#E9A011" stroke-width="2" stroke-linecap="round" stroke-linejoin="round"/>
</svg>
