<svg width="52" height="52" viewBox="0 0 52 52" fill="none" xmlns="http://www.w3.org/2000/svg">
<circle cx="26" cy="26" r="26" fill="#E9A011"/>
<path d="M34.9999 31.92V34.92C35.0011 35.1985 34.944 35.4741 34.8324 35.7293C34.7209 35.9845 34.5572 36.2136 34.352 36.4018C34.1468 36.5901 33.9045 36.7335 33.6407 36.8227C33.3769 36.9119 33.0973 36.945 32.8199 36.92C29.7428 36.5856 26.7869 35.5341 24.1899 33.85C21.7738 32.3146 19.7253 30.2661 18.1899 27.85C16.4999 25.2412 15.4482 22.271 15.1199 19.18C15.0949 18.9034 15.1278 18.6247 15.2164 18.3616C15.3051 18.0985 15.4475 17.8567 15.6347 17.6516C15.8219 17.4465 16.0497 17.2827 16.3037 17.1705C16.5577 17.0583 16.8323 17.0002 17.1099 17H20.1099C20.5952 16.9952 21.0657 17.1671 21.4337 17.4835C21.8017 17.8 22.042 18.2394 22.1099 18.72C22.2366 19.68 22.4714 20.6227 22.8099 21.53C22.9445 21.8879 22.9736 22.2769 22.8938 22.6509C22.8141 23.0248 22.6288 23.3681 22.3599 23.64L21.0899 24.91C22.5135 27.4135 24.5864 29.4864 27.0899 30.91L28.3599 29.64C28.6318 29.3711 28.9751 29.1858 29.3491 29.1061C29.723 29.0263 30.112 29.0554 30.4699 29.19C31.3772 29.5285 32.3199 29.7634 33.2799 29.89C33.7657 29.9585 34.2093 30.2032 34.5265 30.5775C34.8436 30.9518 35.0121 31.4296 34.9999 31.92Z" stroke="white" stroke-width="2" stroke-linecap="round" stroke-linejoin="round"/>
<path d="M27.0498 17C29.0881 17.2148 30.992 18.1188 32.4467 19.5626C33.9014 21.0064 34.8197 22.9034 35.0498 24.94" stroke="white" stroke-width="2" stroke-linecap="round" stroke-linejoin="round"/>
<path d="M27.0498 21C28.0333 21.1939 28.9358 21.679 29.6402 22.3923C30.3446 23.1056 30.8183 24.0141 30.9998 25" stroke="white" stroke-width="2" stroke-linecap="round" stroke-linejoin="round"/>
</svg>
