<svg width="353" height="159" viewBox="0 0 353 159" fill="none" xmlns="http://www.w3.org/2000/svg">
<path d="M24.8025 101.468C20.4373 102.268 5.78726 107.796 0 110.46C58.534 56.5107 120.514 39.195 186.019 102.467C210.325 125.945 261.915 125.446 271.34 124.447C278.88 123.647 302.922 115.788 314 111.958C298.788 124.613 262.783 150.034 241.577 155.418C213.798 162.47 195.609 157.249 186.019 155.418C165.681 152.92 135.422 125.945 135.422 125.945L112.107 110.46C112.169 110.128 94.7457 99.4702 65.4787 96.9726C43.7248 95.1161 30.2591 100.469 24.8025 101.468Z" fill="#EBF2F5"/>
<path d="M65.6446 38.6546C61.3071 39.4373 46.7504 44.8515 41 47.4607C99.1611 -5.37612 160.746 -22.3348 225.834 39.633C249.986 62.6268 301.246 62.1376 310.611 61.1591C318.103 60.3764 341.992 52.6791 353 48.9284C337.885 61.3222 302.109 86.2186 281.038 91.4914C253.436 98.3985 235.363 93.2852 225.834 91.4914C205.626 89.0452 175.559 62.6268 175.559 62.6268L152.393 47.4607C152.455 47.1352 135.142 36.6977 106.062 34.2515C84.4463 32.4333 71.0664 37.6761 65.6446 38.6546Z" fill="#EBF2F5"/>
</svg>
