<svg width="52" height="52" viewBox="0 0 52 52" fill="none" xmlns="http://www.w3.org/2000/svg">
<circle cx="26" cy="26" r="26" fill="#E9A011"/>
<path fill-rule="evenodd" clip-rule="evenodd" d="M33.4702 18.5718C32.4999 17.5952 31.3455 16.8208 30.0738 16.2935C28.8022 15.7662 27.4385 15.4965 26.0618 15.5C20.2892 15.5 15.5898 20.1981 15.5875 25.9731C15.5875 27.8188 16.0693 29.6201 16.9852 31.2091L15.5 36.6353L21.0522 35.1781C22.588 36.0142 24.3086 36.4525 26.0572 36.4533H26.0618C31.8333 36.4533 36.5327 31.7551 36.535 25.9801C36.539 24.604 36.2702 23.2408 35.7441 21.9692C35.218 20.6976 34.4452 19.5429 33.4702 18.5718ZM26.0618 34.6858H26.0583C24.4991 34.686 22.9686 34.2665 21.6273 33.4713L21.31 33.2823L18.0153 34.1468L18.8938 30.935L18.6873 30.606C17.8156 29.2181 17.3541 27.6121 17.3562 25.9731C17.3585 21.1735 21.2633 17.2686 26.0653 17.2686C27.209 17.2661 28.3417 17.4904 29.3981 17.9286C30.4545 18.3667 31.4134 19.0101 32.2195 19.8213C33.0299 20.6287 33.6722 21.5887 34.1094 22.6458C34.5465 23.7029 34.7698 24.8362 34.7663 25.9801C34.764 30.7798 30.8592 34.6858 26.0618 34.6858ZM30.837 28.1653C30.5745 28.0335 29.2888 27.4011 29.0485 27.3136C28.8093 27.2261 28.6355 27.183 28.4605 27.4443C28.2855 27.7056 27.7838 28.2948 27.631 28.4698C27.4782 28.6448 27.3253 28.6658 27.064 28.5351C26.8027 28.4045 25.9592 28.128 24.9593 27.2366C24.1812 26.5425 23.6562 25.6861 23.5033 25.4236C23.3505 25.1611 23.487 25.02 23.6188 24.8893C23.7367 24.7726 23.8802 24.5836 24.0108 24.4308C24.1415 24.278 24.1847 24.1695 24.2722 23.9945C24.3597 23.8195 24.3165 23.6666 24.25 23.536C24.1847 23.4041 23.6608 22.1161 23.4427 21.5923C23.2315 21.0848 23.0157 21.1525 22.8547 21.1455C22.6879 21.1387 22.521 21.1355 22.3542 21.1361C22.2215 21.1395 22.0909 21.1703 21.9706 21.2265C21.8504 21.2827 21.743 21.3632 21.6553 21.4628C21.415 21.7253 20.7395 22.3576 20.7395 23.6456C20.7395 24.9336 21.6775 26.1785 21.8082 26.3535C21.9388 26.5285 23.6538 29.171 26.2788 30.305C26.9042 30.5745 27.3918 30.7355 27.771 30.8568C28.3975 31.0563 28.968 31.0271 29.4195 30.9606C29.9223 30.886 30.9677 30.3283 31.1858 29.717C31.404 29.1056 31.404 28.5818 31.3387 28.4721C31.2733 28.3625 31.0972 28.296 30.837 28.1653Z" fill="white"/>
</svg>
